<svg width="55" height="55" viewBox="0 0 55 55" fill="none" xmlns="http://www.w3.org/2000/svg">
<path d="M15.95 0H39.05C47.85 0 55 7.15 55 15.95V39.05C55 43.2802 53.3196 47.3371 50.3284 50.3284C47.3371 53.3196 43.2802 55 39.05 55H15.95C7.15 55 0 47.85 0 39.05V15.95C0 11.7198 1.68044 7.66285 4.67165 4.67165C7.66285 1.68044 11.7198 0 15.95 0ZM15.4 5.5C12.7744 5.5 10.2563 6.54303 8.39964 8.39964C6.54303 10.2563 5.5 12.7744 5.5 15.4V39.6C5.5 45.0725 9.9275 49.5 15.4 49.5H39.6C42.2256 49.5 44.7437 48.457 46.6004 46.6004C48.457 44.7437 49.5 42.2256 49.5 39.6V15.4C49.5 9.9275 45.0725 5.5 39.6 5.5H15.4ZM41.9375 9.625C42.8492 9.625 43.7235 9.98716 44.3682 10.6318C45.0128 11.2765 45.375 12.1508 45.375 13.0625C45.375 13.9742 45.0128 14.8485 44.3682 15.4932C43.7235 16.1378 42.8492 16.5 41.9375 16.5C41.0258 16.5 40.1515 16.1378 39.5068 15.4932C38.8622 14.8485 38.5 13.9742 38.5 13.0625C38.5 12.1508 38.8622 11.2765 39.5068 10.6318C40.1515 9.98716 41.0258 9.625 41.9375 9.625ZM27.5 13.75C31.1467 13.75 34.6441 15.1987 37.2227 17.7773C39.8013 20.3559 41.25 23.8533 41.25 27.5C41.25 31.1467 39.8013 34.6441 37.2227 37.2227C34.6441 39.8013 31.1467 41.25 27.5 41.25C23.8533 41.25 20.3559 39.8013 17.7773 37.2227C15.1987 34.6441 13.75 31.1467 13.75 27.5C13.75 23.8533 15.1987 20.3559 17.7773 17.7773C20.3559 15.1987 23.8533 13.75 27.5 13.75ZM27.5 19.25C25.312 19.25 23.2135 20.1192 21.6664 21.6664C20.1192 23.2135 19.25 25.312 19.25 27.5C19.25 29.688 20.1192 31.7865 21.6664 33.3336C23.2135 34.8808 25.312 35.75 27.5 35.75C29.688 35.75 31.7865 34.8808 33.3336 33.3336C34.8808 31.7865 35.75 29.688 35.75 27.5C35.75 25.312 34.8808 23.2135 33.3336 21.6664C31.7865 20.1192 29.688 19.25 27.5 19.25Z" fill="#FFFCEF"/>
</svg>
